
              <svg id="sw-js-blob-svg" viewBox="0 0 100 100" xmlns="http://www.w3.org/2000/svg" version="1.1">
                    <defs> 
                        <linearGradient id="sw-gradient" x1="0" x2="1" y1="1" y2="0">
                            <stop id="stop1" stop-color="rgba(248, 117, 55, 1)" offset="0%"></stop>
                            <stop id="stop2" stop-color="rgba(251, 168, 31, 1)" offset="100%"></stop>
                        </linearGradient>
                    </defs>
                <path fill="url(#sw-gradient)" d="M19.5,-27C25.2,-22.8,29.5,-16.9,33.7,-9.6C38,-2.3,42.1,6.4,38.8,11.4C35.6,16.5,24.9,18.1,17.2,22.3C9.5,26.5,4.7,33.5,-1.8,35.9C-8.3,38.4,-16.6,36.4,-22.5,31.5C-28.4,26.7,-31.8,19.1,-30.8,12.4C-29.7,5.6,-24.1,-0.2,-22.7,-8.3C-21.4,-16.5,-24.3,-26.9,-21.2,-32C-18.1,-37,-9.1,-36.6,-1.1,-35.2C7,-33.7,13.9,-31.2,19.5,-27Z" width="100%" height="100%" transform="translate(50 50)" stroke-width="0" style="transition: all 0.3s ease 0s;" stroke="url(#sw-gradient)"></path>
              </svg>