<!--?xml version="1.0" standalone="no"?-->
              <svg id="sw-js-blob-svg" viewBox="0 0 100 100" xmlns="http://www.w3.org/2000/svg" version="1.1">
                    <defs> 
                        <linearGradient id="sw-gradient" x1="0" x2="1" y1="1" y2="0">
                            <stop id="stop1" stop-color="rgba(6, 182, 212, 1)" offset="0%"></stop>
                            <stop id="stop2" stop-color="rgba(63, 131, 248, 1)" offset="100%"></stop>
                        </linearGradient>
                    </defs>
                <path fill="url(#sw-gradient)" d="M9.7,-15.2C12.2,-15.3,13.8,-12.1,17.1,-9C20.5,-5.9,25.7,-3,29.5,2.2C33.2,7.3,35.6,14.6,32.5,18.1C29.3,21.5,20.6,21.1,14.3,21.2C8,21.2,4,21.8,-1.4,24.3C-6.8,26.8,-13.7,31.2,-18.3,30.1C-22.9,29,-25.2,22.5,-21.9,16.5C-18.6,10.6,-9.6,5.3,-8.7,0.5C-7.8,-4.2,-14.9,-8.5,-17.3,-12.9C-19.8,-17.4,-17.7,-22.2,-14,-21.5C-10.4,-20.7,-5.2,-14.5,-0.8,-13.1C3.6,-11.7,7.1,-15.1,9.7,-15.2Z" width="100%" height="100%" transform="translate(50 50)" stroke-width="0" style="transition: all 0.3s ease 0s;" stroke="url(#sw-gradient)"></path>
              </svg>